<svg xmlns="http://www.w3.org/2000/svg" viewBox="0 0 300 243"><g fill="none" stroke-width="2"><path stroke="#cf868a" d="m182.05 28.92-3.8-.71m-13.54-2.25-4.46-.67m-2.75-.33-5.5-1" vector-effect="non-scaling-stroke"/><path stroke="#d3d8de" d="M139.51 16.83q-1.7-.97.25-2.16.71-.44.44-.53l-.25-.09a.64.63-62.3 0 0-.73.23q-1.27 1.77-1.51-.53" vector-effect="non-scaling-stroke"/><path stroke="#b36f77" d="M137.4 20.42q-2.42-.41-3.94-2.67" vector-effect="non-scaling-stroke"/><path stroke="#d58b8f" d="m199.72 81.15-3.78 1.2m-13.73 4.4q-1.6-.31-2.46.96m-1.04.54q-1.85-.19-3.25 1m-13.61 5.17q-1.36.02-2.6 1.12m-1.5.5q-2.28.51-3.98 1.85m-14.06 6.36q-2.92 1.04-4.79 2.89" vector-effect="non-scaling-stroke"/><path stroke="#a25f68" d="m122.29 114.5-1.04-.54" vector-effect="non-scaling-stroke"/><path stroke="#b7bfc7" d="M129.5 137.46q.57 1.32 1.75 1.08" vector-effect="non-scaling-stroke"/><path stroke="#c8cdd4" d="M145.71 161q1.19-1.37.5-3m-12.67-10.5-.79-1.46" vector-effect="non-scaling-stroke"/><path stroke="#e9ebed" d="M136.5 132.04q-1.45-.14-2.25-1.33" vector-effect="non-scaling-stroke"/><path stroke="#c8cdd4" d="M124.5 128.46q-2-.03-1.5-1.67" vector-effect="non-scaling-stroke"/><path stroke="#bd2225" d="m174.25 47.54-1.75 3.92m-.75 1.58q.06.43.41.53a.51.51 0 0 1 .38.54q-.07.76.71 1.18m-3.54 12.96q.96 1.31 2.5.5m1.5 0q.25 1.87 2.04 2.29m-1.04 12.21q.25 1.08 1.54.54M193.04 65q-2.03-4.89.59-8.93m-2.38-13.28-2.5-1.33M177 35.71l-1.75.08" vector-effect="non-scaling-stroke"/></g><path fill="#eeeff1" d="m182.05 28.92-3.8-.71-3.98-7.72a1.01 1 58.2 0 0-1.48-.35l-8.08 5.82-4.46-.67 10.89-6.02q2.27-1.25-.31-1.5-11.56-1.08-22.73-4.13-2.97-.81-.77 1.34l10.17 9.98-5.5-1-7.7-9.66a1 1 0 0 0-1.4-.16l-3.39 2.69q-1.7-.97.25-2.16.71-.44.44-.53l-.25-.09a.64.63-62.3 0 0-.73.23q-1.27 1.77-1.51-.53Q152.16 5.14 168.33.51a1 .99-17.1 0 1 1.22.64q4.9 14.28 12.5 27.77Zm-33.24-17.05 21.94 3.65q1.73.29 1.1-1.35-2.14-5.53-2.84-11.45a1 .99-13.4 0 0-1.34-.82q-9.79 3.67-19.09 8.47-2.14 1.1.23 1.5Z"/><path fill="#b7c0ca" d="M137.71 13.75q.24 2.3 1.51.53a.64.63-62.3 0 1 .73-.23l.25.09q.27.09-.44.53-1.95 1.19-.25 2.16l-2.11 3.59q-2.42-.41-3.94-2.67 1.51-2.64 4.25-4Z"/><path fill="#af1d23" d="M133.46 17.75q1.52 2.26 3.94 2.67 7.1 2.69 14.6 3.54l5.5 1 2.75.33 4.46.67q6.68 1.69 13.54 2.25l3.8.71q22.72 2.92 44.21 11.01 20.32 7.65 31.93 25.7a1.01 1-21.5 0 1-.67 1.53q-29.37 5.25-57.8 13.99l-3.78 1.2q-7.06 1.7-13.73 4.4-1.6-.31-2.46.96l-1.04.54q-1.85-.19-3.25 1-6.97 1.91-13.61 5.17-1.36.02-2.6 1.12l-1.5.5q-2.28.51-3.98 1.85-7.31 2.61-14.06 6.36-2.92 1.04-4.79 2.89-7.01 2.5-12.63 7.36l-1.04-.54c19.31-17.55 48.06-43.47 31.39-72.9-3.94-6.96-12.38-14.16-18.69-20.5q-1.13-1.12-.49-2.81Zm16.68 8.92q-4.82-1.35-8.95-2.46-1.18-.32-.13.48 7.83 5.98 12.83 14.45c.5.85.72.05.58-.36q-2.02-5.79-3.64-11.42a.99.99 0 0 0-.69-.69Zm19.09 3.71-15.2-2.92q-1.92-.37-1.1 1.4 2.46 5.32 3.97 10.97a1 1 0 0 0 1.66.46q4.96-4.76 10.96-8.05 2.44-1.34-.29-1.86Zm5.02 17.16-1.75 3.92-12.38-3.73a1 1 0 0 0-1.28 1.11q1.01 6.5.59 13.1-.18 2.75 1.72.75 4.99-5.25 10.6-9.65.06.43.41.53a.51.51 0 0 1 .38.54q-.07.76.71 1.18l-12.56 10.93a1 1 0 0 0 .22 1.65q3.03 1.49 5.27 4.01a1 1 0 0 0 1.62-.18l1.91-3.45q.96 1.31 2.5.5.61.93 1.5 0 .25 1.87 2.04 2.29l-6.12 3.55a1 1 0 0 0-.37 1.36q2.57 4.52 2.39 9.78a.51.51 0 0 0 .3.48c.32.15 2.68-2.89 2.76-2.96q.25 1.08 1.54.54-2.01 2.02.55.99 10.65-4.25 31.09-10.04 1.73-.49.41-1.7-5.97-5.45-12.71-9.93a1.01 1 34.4 0 0-1.37.25L193.04 65q-2.03-4.89.59-8.93 6.27-7.73 8.42-17.5.48-2.2-1.47-1.08l-9.33 5.3-2.5-1.33q4.3-2.63 8.98-4.52 2.54-1.03-.16-1.53l-20.24-3.75a1 .99-3 0 0-1.14 1.26l.81 2.79-1.75.08-1.14-3.41a1 1 0 0 0-1.59-.45l-11.83 9.96q-1.42 1.2.36 1.73l13.2 3.92Zm53.87-2.42q-11.19-4.71-22.95-7.81a1 1 0 0 0-1.25.84q-1.03 8.4-4.66 16-.89 1.87 1.02 1.09 13.48-5.48 27.7-8.6 2.47-.54.14-1.52Zm-27.98 15.31q6.54 5.22 11.28 12.1a1 .99 46.5 0 0 1.61.05l18.11-23.4q1.52-1.96-.86-1.25-15.27 4.52-29.91 10.8a1 1 0 0 0-.23 1.7Zm49.76-1.08q-6.92-6.23-15.14-10.85a1.01 1 26.9 0 0-1.4.45q-6.21 13.51-17.42 22.99-.41.35-.16.65a.41.41 0 0 0 .42.13q18.9-4.82 38.32-6.51 2.04-.18.65-1.68-2.47-2.66-5.27-5.18Zm-87.46 15.08-3.59-2.29a1 1 0 0 0-1.49.54q-1.72 5.55-5 10.33-.62.91.4.48.22-.09.45-.29 4.62-3.97 9.25-7.1a1 1 0 0 0-.02-1.67Zm3 4.7q-8.37 10.12-19.16 17.61-.91.63.19.47.26-.03.58-.19 10.66-5.24 22.3-9.42a1.01 1-15.1 0 0 .65-1.12q-.72-3.98-2.96-7.27a1 1 0 0 0-1.6-.08Zm-24.02 18.44c2.92-1.14 21.2-16.41 20.4-17.77a.42.41-33.2 0 0-.6-.12q-4.68 3.4-9.43 6.72c-4.16 2.92-7.05 7.11-10.65 10.74q-.87.88.28.43Z"/><path fill="#cb2727" d="m175.25 35.79 1.75-.08q1.61 4.74 1.51 10.09-.04 2.04 1.6.82 3.89-2.89 8.64-5.16l2.5 1.33-8.88 5.99q-1.64 1.11.23 1.77 5.36 1.9 11.03 5.52-2.62 4.04-.59 8.93-7.2 10.47-16.79 18.79-1.29.54-1.54-.54l12.97-16.89q2.28-2.97-1.01-1.2l-10.92 5.88q-1.79-.42-2.04-2.29 6.98-4.66 14.63-8.16 1.91-.87.03-1.8l-9.29-4.62a.99.99 0 0 0-1.42.68q-1.59 7.43-5.45 13.9-1.54.81-2.5-.5 2.99-6.09 4.86-12.61.53-1.84-1-.69-.17.13-.32.34-.78-.42-.71-1.18a.51.51 0 0 0-.38-.54q-.35-.1-.41-.53 1.21-.53.75-1.58l1.75-3.92q.3.15.58.18a1 1 0 0 0 1.13-.96q.18-5.51-.71-10.97Z"/><path fill="#faf9fa" d="M199.72 81.15c4.4 29.74-1.88 57.98-16.5 84.09a1 .99 14.9 0 1-.89.51q-18.56-.36-36.62-4.75 1.19-1.37.5-3l9.56-15.26q1.1-1.75-.89-1.2l-21.34 5.96-.79-1.46 20.38-7.25q2-.72.18-1.8-6.41-3.83-11.32-9.49a1 1 0 0 0-1.51 0l-3.98 4.54q-1.45-.14-2.25-1.33l2.33-3.5q1.11-1.65-.83-1.22l-11.25 2.47q-2-.03-1.5-1.67l13.89-4.19a1 .99-23.7 0 0 .58-1.46q-3.53-5.94-2.55-14 1.87-1.85 4.79-2.89-1.85 7.27 1.04 13.86.75 1.7 1.76.15 6.59-10.15 11.26-20.37 1.7-1.34 3.98-1.85.01.12.14.22a.21.2 30.9 0 1 .07.24q-4.21 10.87-10.09 20.9-1.38 2.35 1.19 1.45l20.39-7.15q1.67-.58.32-1.71-7.06-5.9-10.52-14.45 1.24-1.1 2.6-1.12 3.17 7.89 9.4 13.34a1 1 0 0 0 1.61-.45q2.96-9.09 2.6-18.06 1.4-1.19 3.25-1-.03 9.91-2.72 19.24-.47 1.62 1.08.96 9.73-4.16 18.58-9.94 1.48-.97-.11-1.74-8.02-3.9-15.79-9.06.86-1.27 2.46-.96l13.67 8.71q1.38.88 1.23-.75l-1.17-12.36 3.78-1.2Zm-21.88 31.61q7.81 4.86 16.57 7.69a1.01 1 13 0 0 1.3-.81q1.36-9.23 1.57-18.55.04-2.01-1.59-.83-8.44 6.11-17.76 10.76-1.6.8-.09 1.74Zm15.15 8.54q-9.33-2.49-17.7-7.28a1 1 0 0 0-1.44.54q-3.19 9.22-7.86 17.77-1.34 2.47 1.26 1.41l25.86-10.55q2.76-1.12-.12-1.89Zm-42.63 8.85q3.91 3.27 8.32 5.93a1.01 1-61.1 0 0 1.41-.41l9.51-18.72q1.25-2.46-1.28-1.37-11.02 4.72-22.62 7.74a1 1 0 0 0-.52 1.6q2.39 2.9 5.18 5.23Zm14.95 9.32q10.9 4.56 22.51 6.7a1 1 0 0 0 1.15-.71l5.72-19.87q.65-2.23-1.42-1.16-13.73 7.12-27.96 13.19-2.18.93 0 1.85Zm19.18 7.42q-11.7-1.42-22.67-5.68a.99.99 0 0 0-1.2.39q-5.15 8.08-11.33 15.41-2.15 2.55 1.05 1.6l34.29-10.16q3.69-1.1-.14-1.56Zm-29.09 13.48 25.83 4.09a.99.99 0 0 0 1.09-.64l4.95-13.29q.82-2.21-1.34-1.26-14.75 6.48-30.56 9.53-4.48.86.03 1.57Z"/><path fill="#95a1ad" d="m121.25 113.96 1.04.54q-6.37 5.59-9.33 13.44-.7 1.84 1.2 1.31l8.84-2.46q-.5 1.64 1.5 1.67l-11.12 2.7a1 1 0 0 0-.72 1.26q2.56 8.42 9.47 13.79a1.01 1.01 0 0 0 1.44-.22l5.93-8.53q.57 1.32 1.75 1.08l-6.81 9a.65.64 55 0 0-.1.6q.27.73 1.18.39 5.11-1.91 7.23-2.49l.79 1.46-5.03 1.4q-2.3.65-.23 1.83 8.45 4.86 17.93 7.27.69 1.63-.5 3c-13.38-2.72-47.71-15.84-35.11-35.6q4.28-6.72 10.65-11.44Z"/><path fill="#d8dce0" d="M134.25 130.71q.8 1.19 2.25 1.33l-5.25 6.5q-1.18.24-1.75-1.08l4.75-6.75Z"/><path fill="#231f1f" d="M84.48 166.55a1 1 0 0 0 .78-1.09c-.65-5.75 5.86-5.78 5.19-3.71a.64.63 11.1 0 1-.67.44c-3.54-.33-3.84 4.99-1.05 4.31a.99.98-32.2 0 1 .86.19q.57.46.25 1.01a1.01.99-72.3 0 1-.94.5l-.85-.06a1.01 1 1.8 0 0-1.08 1.01l.09 8.43a1 .99 88.5 0 1-.95 1.01q-.49.02-.81-.33c-.74-.83-.17-7.49-.07-8.91a1.01 1-78.5 0 0-.67-1.03q-3.23-1.1-.08-1.77Z"/><circle cx="23.99" cy="162.21" r="1.25" fill="#231f1f"/><path fill="#0a090e" fill-opacity=".898" d="M189.96 161.19q1.11.08.38.72a1 .97 70 0 0-.33.74l-.01 2.98q-.01.63-.45.19l-.26-.25a.43.41-57.4 0 1-.09-.45q.61-1.53-.01-2.77-.64-1.26.77-1.16Z"/><path fill="#231f1f" d="M192.36 164.01q-.06-1.14-.41-1.86a.51.51 0 0 1 .38-.73q1.07-.16 1.18 1.5.01.21-.06.41l-.3.81q-.7 1.9-.79-.13Zm3.77-.62q-.88-.59-.03-1.6 1.49-1.75 1.12.52c-.03.24.26 4.59-.63 3.24a.7.66 32.2 0 1-.11-.43l.09-.78a1 1 0 0 0-.44-.95Zm-179.48 2.32q-.3-.04-.43.28-2.45 6.03-5.02 11.57-.93 2.01-1.82-.02l-5.15-11.81q-.49-1.12-.78.06-.06.28-.03.72c.11 1.31 1.54 13.14-1.19 11.95a.81.8-78.3 0 1-.48-.74v-15.05a1 1 0 0 1 .97-1q1.61-.05 2.46 1.84 2.2 4.92 4.22 9.87.89 2.19 1.84.03l4.84-11.04a.99.98 13.2 0 1 .96-.59l.84.04a1 1 0 0 1 .95 1l-.02 14.74a1 1 0 0 1-.54.89q-.95.49-1.4-.52c-.76-1.74.06-9.48.07-11.89a.34.33 4 0 0-.29-.33Zm79.24.79h1.41a.65.64-75.6 0 1 .56.96l-.16.27a1.01.99-68.5 0 1-1.08.48l-.41-.08a.99.99 0 0 0-1.21.97v6.7a1.02 1 6.5 0 0 .79.98l1.52.33a.8.79-84.2 0 1 .63.78q0 1.05-1.72.92c-4.63-.34-3.15-6.49-3.28-9.69a1 .99 4 0 0-.83-.94q-2.71-.47.4-1.93a1.01 1 70.4 0 0 .54-1.15l-.18-.75a.63.63 0 0 1 .44-.76l.38-.12a1.01 1 84.2 0 1 1.28 1.05l-.07.9a.99.99 0 0 0 .99 1.08Z"/><path fill="#0a090e" fill-opacity=".898" d="M194.3 164.22q.9 0 .75.78-.3 1.53-.97.12l-.15-.31a.42.41-12.9 0 1 .37-.59Zm-91.55.6c5.73-1.37 4.17 7.56-1.56 5.51q-.86-.31-1.19-1.11-.23-.54.33-.35.28.1.65-.23a.81.8-21.6 0 0 .26-.59v-1.01q0-1 .7-.28l.33.32a.51.5-57.5 0 0 .84-.19q.4-1.14-1.71-2-.75-.31.04-.5.41-.1.68.22a.63.63 0 0 0 .63.21Zm.15 3.45-.19-.18a.65.64-54.7 0 0-.98.17q-1.35 2.36 2.67 1.98a1.01.99 8.5 0 0 .82-.6q1.36-3.09-.37-4.37-1.43-1.05-1.27.72l.17 1.85q.11 1.26-.85.43Z"/><path fill="#231f1f" d="m32.76 177.07 3.61-.38a.64.63-8.1 0 1 .7.52q.14.81-.75 1.12c-10.03 3.52-12.07-12.82-.91-12.05q1.63.11 1.62 1.25a.8.8 0 0 1-.97.77q-6.68-1.41-6.04 5.72.3 3.31 2.74 3.05Zm9.73-9.27c.58-1.34 3.72-2.28 3.62-.39a.8.8 0 0 1-.81.76c-6.5-.14-1.48 11.84-4.94 10.34a1.01 1.01 0 0 1-.6-.91c-.01-1.39-.76-11.65 1.16-11.07a.8.8 0 0 1 .56.89q-.12.72.56.69a.52.5-78.9 0 0 .45-.31Z"/><path fill="#231f1f" d="M51.972 178.82a6.39 5.99 97.9 0 1-5.055-7.153 6.39 5.99 97.9 0 1 6.811-5.506 6.39 5.99 97.9 0 1 5.055 7.152 6.39 5.99 97.9 0 1-6.811 5.506Zm1.023-1.681a4.65 3.99 88.7 0 0 3.884-4.74 4.65 3.99 88.7 0 0-4.094-4.558 4.65 3.99 88.7 0 0-3.884 4.74 4.65 3.99 88.7 0 0 4.094 4.558Z"/><path fill="#231f1f" d="M61.15 178.09c-1.98-3.82 6.56 1.8 4.87-3.28a1.03 1.01-85.6 0 0-.49-.58c-2.57-1.31-6.66-3.12-3.79-6.58q1.75-2.11 5.03-1.18.91.27.99.91a.8.8 0 0 1-1.02.87c-1.24-.38-5.44-.21-3.67 2.2 1.14 1.56 3.68 1.43 4.68 3.34 2.07 3.99-2.7 5.55-5.93 4.81a1.02 1 81.9 0 1-.67-.51Z"/><path fill="#231f1f" d="M75.34 178.833a6.39 5.94 96.2 0 1-5.215-6.994 6.39 5.94 96.2 0 1 6.595-5.712 6.39 5.94 96.2 0 1 5.215 6.994 6.39 5.94 96.2 0 1-6.595 5.712Zm4.47-7.43a3.39 3.39 0 0 0-3.36-3.42l-.74-.006a3.39 3.39 0 0 0-3.42 3.36l-.02 2.24a3.39 3.39 0 0 0 3.36 3.42l.74.006a3.39 3.39 0 0 0 3.42-3.36l.02-2.24Z"/><rect width="1.74" height="10.6" x="23.1" y="167.15" fill="#231f1f" rx=".75"/><path fill="#231f1f" d="M0 229.44v-5.75c3.98.87 7.23 3.46 11.61 3.36 9.91-.24 11.91-9.4 3.96-14.63C8.16 207.55 2.1 204.85 0 197.19v-2.5c2.06-11.81 14.28-13.42 23.89-10.33a.99.98-80.7 0 1 .69.97l-.09 3.84a1.01 1-78.5 0 1-1.37.91q-2.32-.92-4.63-1.49c-10.8-2.66-17.78 6.97-6.93 14.34 7.58 5.16 16.91 8.81 14.48 20.32-.48 2.26-2.89 5.13-5.1 6.33q-10.16 5.55-20.94-.14Zm69.72 13.53-7.28.03c-2.95-3.09-8.05-10.3-12.14-11.05-9.93-1.82-16.21-6.79-18.44-17.03-3-13.81 1.85-28.39 17.14-31.46q7.16-1.43 13.94 1.1c16.15 6.05 17.19 35.32 2.99 44.05q-2.54 1.56-5.41 2.36-1.72.47-.42 1.69 5.07 4.74 9.62 10.31ZM49.93 188.4c-17.72 3.43-17.58 36.07 1.78 38.43 24.53 2.99 24.87-43.58-1.78-38.43Zm91.15 29.32c-3.73-8.4-18.01-9.78-19.5-19.66-2.17-14.37 13.45-16.73 23.47-13.61a.99.98-81.8 0 1 .7.95v3.82a1 1 0 0 1-1.41.91q-5.88-2.62-11.08-1.65c-4.61.86-7.61 5.91-5.12 10.22 2.23 3.86 9.36 7.47 13.14 9.99 10.81 7.2 7.24 21.14-5.47 23.24q-7.1 1.17-13.97-1.91a1.01 1 12.5 0 1-.59-.91v-4.4q0-1.79 1.52-.86 4.13 2.53 8.86 3.11c5.48.67 12.24-2.93 9.45-9.24Zm-51.06 7.77 17.25.01a1 1 0 0 1 1 1.02l-.08 3.75a1 .99.3 0 1-1 .98H84.11a1.01 1.01 0 0 1-.98-.78c-.43-1.95.11-4.33.11-5.93q.03-19.54-.01-40.04a1 1 0 0 1 1-1h3.76a1 1 0 0 1 1 1l.03 40a1 .99 0 0 0 1 .99Zm67.13-8.38q.6 5.39 4.51 8.25 3.3 2.4 8.11 1.76 3.92-.52 7.52-2.41a1 1 0 0 1 1.46.89v2.74a1.01 1 75 0 1-.5.87q-12.35 7.06-22.55-1.59c-6.23-5.28-5.25-18.52-1.15-24.55 4.03-5.93 12.15-8.26 18.56-5.27 6.65 3.1 7.96 10.44 7.62 17.25a.99.99 0 0 1-.99.95h-21.6a1 .99-3.3 0 0-.99 1.11Zm15.98-11.94c-3.65-5.27-10.27-4.5-13.89.61q-1.03 1.45-1.55 4.29a1.01 1 5 0 0 .99 1.18h15.29a1.01 1-3.5 0 0 1-1.12q-.35-2.82-1.84-4.96Zm83.89 21.87q3.8-.52 7.22-2.5a1 1 0 0 1 1.5.86l.02 2.95a1.01 1-14.7 0 1-.52.88c-10.31 5.69-24.49 2.58-26.6-10.14-.74-4.43-.42-9.5 1.49-13.57 5.12-10.87 22.35-13.22 26.62-.27q1.38 4.17.93 9.58a1.01 1-87.5 0 1-1 .92h-21.47a1 1 0 0 0-.99 1.1q.56 5.82 4.77 8.62 3.34 2.22 8.03 1.57Zm.31-24.49c-2.63-1.43-6.08-1.47-8.46.31q-3.38 2.52-4.19 7.22a1 1 0 0 0 .99 1.17h15.31a1 .99 87.6 0 0 .99-1.08q-.42-5.32-4.64-7.62Zm-61.52 1.51c-4.85 5.22-3.39 19.33-3.34 26.2a1 1 0 0 1-1.02 1l-3.71-.06a1 1 0 0 1-.98-1l-.04-31.7a1 1 0 0 1 1-1h3.86a1 .99 1.4 0 1 1 1.04l-.08 1.92q-.13 2.77 1.45.49 3.4-4.88 9.67-4.13a1.01 1-86.5 0 1 .88 1v3.42a1 .99 8.6 0 1-1.29.95q-4.41-1.34-7.4 1.87Zm83.92-1.81h.29a.26.25 13 0 0 .23-.14q3.23-6.2 10.38-5.3a1.02 1.01 3.9 0 1 .88 1l-.02 3.38a1 1 0 0 1-1.31.95q-4.07-1.32-7.15 1.87-2.74 2.83-3.24 6.74-.49 3.79-.3 19.24a1 1 0 0 1-1 1.01h-3.73a1.01 1 89.7 0 1-1-1l-.04-31.75a1 1 0 0 1 1-1h3.99a1 1 0 0 1 1 1.07l-.24 3.66a.25.25 0 0 0 .26.27Z"/><path fill="#0a090e" fill-opacity=".898" d="M300 199.56v.25q-1.2 4.83-5.47 2.53-.94-.51.12-.61.64-.07.86.52a.8.79-10.1 0 0 .77.53q1.81-.06.98-1.36a1 .99-25.6 0 0-1.17-.41c-1.84.63-.85-5.21-.02-1.85q.13.55 1.2-.11.68-.42.38.32-.24.59-.12 1.22c.17 1 1.44 1.32 1.62.22q.84-5.03-3.71-3.2c-1.33.53-1.49-.38-.29-.73q3.97-1.16 4.85 2.68Z"/><path fill="#231f1f" d="m222.32 223.75 9.64-25.98a.41.41 0 0 1 .39-.27h4.99a.41.41 0 0 1 .38.56L224.6 231a.41.41 0 0 1-.38.26l-5.07-.01a.41.41 0 0 1-.38-.27l-12.44-33.13a.41.41 0 0 1 .4-.56l5.42.28a.41.41 0 0 1 .37.27l9.03 25.9a.41.41 0 0 0 .77.01Z"/></svg>